<svg width="512" height="512" viewBox="0 0 512 512" fill="none" xmlns="http://www.w3.org/2000/svg">
<g clip-path="url(#clip0_920_3841)">
<path d="M256 512C397.385 512 512 397.385 512 256C512 114.615 397.385 0 256 0C114.615 0 0 114.615 0 256C0 397.385 114.615 512 256 512Z" fill="#F0F0F0"/>
<path d="M52.9203 100.142C32.8113 126.305 17.6483 156.46 8.81934 189.219H141.997L52.9203 100.142ZM503.181 189.219C494.352 156.461 479.188 126.306 459.08 100.143L370.005 189.219H503.181ZM8.81934 322.784C17.6493 355.542 32.8123 385.697 52.9203 411.859L141.994 322.784H8.81934ZM411.858 52.921C385.695 32.812 355.541 17.649 322.782 8.81897V141.996L411.858 52.921ZM100.142 459.079C126.305 479.188 156.46 494.351 189.218 503.181V370.005L100.142 459.079ZM189.217 8.81897C156.459 17.649 126.304 32.812 100.142 52.92L189.217 141.995V8.81897ZM322.783 503.181C355.541 494.351 385.696 479.188 411.858 459.08L322.783 370.005V503.181ZM370.005 322.784L459.08 411.86C479.188 385.698 494.352 355.542 503.181 322.784H370.005Z" fill="#0052B4"/>
<path d="M509.833 222.609H289.392V2.167C278.32 0.724405 267.166 0.000556207 256 0C244.681 0 233.539 0.744 222.609 2.167V222.608H2.167C0.724405 233.68 0.000556207 244.834 0 256C0 267.319 0.744 278.461 2.167 289.391H222.608V509.833C244.775 512.722 267.224 512.722 289.391 509.833V289.392H509.833C511.276 278.32 512 267.166 512 256C512 244.683 511.256 233.539 509.833 222.609Z" fill="#D80027"/>
<path d="M322.783 322.784L437.019 437.02C442.27 431.762 447.291 426.279 452.067 420.585L354.265 322.783H322.783V322.784ZM189.217 322.784H189.215L74.9796 437.019C80.2375 442.271 85.721 447.291 91.4146 452.067L189.217 354.263V322.784ZM189.217 189.219V189.217L74.9806 74.98C69.729 80.2378 64.7083 85.7213 59.9326 91.415L157.736 189.218H189.217V189.219ZM322.783 189.219L437.02 74.981C431.762 69.7294 426.278 64.709 420.585 59.934L322.783 157.737V189.219Z" fill="#D80027"/>
</g>
<defs>
<clipPath id="clip0_920_3841">
<rect width="512" height="512" fill="white"/>
</clipPath>
</defs>
</svg>
