<svg width="512" height="512" viewBox="0 0 512 512" fill="none" xmlns="http://www.w3.org/2000/svg">
<g clip-path="url(#clip0_920_3896)">
<path d="M256 512C397.385 512 512 397.385 512 256C512 114.615 397.385 0 256 0C114.615 0 0 114.615 0 256C0 397.385 114.615 512 256 512Z" fill="#F0F0F0"/>
<path d="M244.87 256H512C512 232.894 508.92 210.51 503.181 189.217H244.87V256ZM244.87 122.435H474.426C458.772 96.9068 438.782 74.3067 415.356 55.652H244.87V122.435ZM256 512C316.249 512 371.626 491.176 415.356 456.348H96.6443C140.374 491.176 195.751 512 256 512ZM37.5743 389.565H474.426C487.159 368.795 496.842 346.305 503.181 322.782H8.81934C15.1582 346.305 24.8421 368.795 37.5743 389.565Z" fill="#D80027"/>
<path d="M118.584 39.978H141.913L120.213 55.743L128.502 81.252L106.803 65.487L85.104 81.252L92.264 59.215C73.1227 75.1607 56.3976 93.8008 42.612 114.552H50.087L36.274 124.587C34.12 128.182 32.0547 131.829 30.08 135.525L36.676 155.826L24.37 146.885C21.2988 153.388 18.5056 160.018 15.998 166.758L23.265 189.126H50.087L28.387 204.891L36.676 230.4L14.977 214.635L1.979 224.079C0.661028 234.668 9.67838e-05 245.329 0 256H256V0C205.428 0 158.285 14.67 118.584 39.978ZM128.502 230.4L106.803 214.635L85.104 230.4L93.393 204.891L71.693 189.126H98.515L106.803 163.617L115.091 189.126H141.913L120.213 204.891L128.502 230.4ZM120.213 130.317L128.502 155.826L106.803 140.061L85.104 155.826L93.393 130.317L71.693 114.552H98.515L106.803 89.043L115.091 114.552H141.913L120.213 130.317ZM220.328 230.4L198.629 214.635L176.93 230.4L185.219 204.891L163.519 189.126H190.341L198.629 163.617L206.917 189.126H233.739L212.039 204.891L220.328 230.4ZM212.039 130.317L220.328 155.826L198.629 140.061L176.93 155.826L185.219 130.317L163.519 114.552H190.341L198.629 89.043L206.917 114.552H233.739L212.039 130.317ZM212.039 55.743L220.328 81.252L198.629 65.487L176.93 81.252L185.219 55.743L163.519 39.978H190.341L198.629 14.469L206.917 39.978H233.739L212.039 55.743Z" fill="#0052B4"/>
</g>
<defs>
<clipPath id="clip0_920_3896">
<rect width="512" height="512" fill="white"/>
</clipPath>
</defs>
</svg>
